<svg viewBox="0,0,401.94937,96.64523" height="96.64523" width="401.94937" xmlns:xlink="http://www.w3.org/1999/xlink" xmlns="http://www.w3.org/2000/svg" version="1.1"><defs><linearGradient id="color-1" gradientUnits="userSpaceOnUse" y2="130.41901" x2="48.00635" y1="48.83013" x1="48.00665"><stop stop-color="#b57676" offset="0"></stop><stop stop-color="#c17e7e" offset="1"></stop></linearGradient><linearGradient id="color-2" gradientUnits="userSpaceOnUse" y2="125.41901" x2="43.00635" y1="43.83013" x1="43.00664"><stop stop-color="#ea9999" offset="0"></stop><stop stop-color="#9fc5e8" offset="1"></stop></linearGradient></defs><g transform="translate(-43.00664,-43.83158)"><g style="mix-blend-mode: normal" stroke-dashoffset="0" stroke-dasharray="" stroke-miterlimit="10" stroke-linejoin="miter" data-paper-data="{&quot;isPaintingLayer&quot;:true}"><g stroke-linecap="square" stroke-width="1" stroke="none" fill-rule="evenodd" fill="url(#color-1)"><path d="M88.68528,52.24705c1.28315,0 2.24323,0.04412 2.88027,0.13237c0.64613,0.07943 1.37416,0.33537 2.18408,0.76782c0.80993,0.43245 1.38325,1.16498 1.71997,2.19756c0.33671,1.03258 0.50507,2.41819 0.50507,4.1568c0,1.72982 -0.16836,3.111 -0.50507,4.14359c-0.33671,1.02376 -0.92369,1.74304 -1.76091,2.15783c-0.83724,0.40597 -1.57892,0.64869 -2.22504,0.7281c-0.63702,0.07944 -1.62896,0.11916 -2.97582,0.11916h-25.66302v8.20773h16.53081c1.33776,0 2.32514,0.04411 2.96217,0.13237c0.64612,0.07944 1.39235,0.33537 2.23869,0.76783c1.44696,0.81194 2.17043,2.95213 2.17043,6.42056c0,3.8038 -1.06019,6.0543 -3.18057,6.75151c-0.89183,0.2736 -2.32059,0.4104 -4.28628,0.4104h-16.43525v15.36961c0,1.30618 -0.04096,2.25934 -0.12286,2.85948c-0.0819,0.5913 -0.34581,1.29294 -0.79174,2.10488c-0.78262,1.46504 -2.96671,2.19756 -6.55226,2.19756c-3.91315,0 -6.20189,-1.02818 -6.86622,-3.08452c-0.33672,-0.87372 -0.50507,-2.25932 -0.50507,-4.15682v-45.22192c0,-2.76238 0.52783,-4.64664 1.58346,-5.65275c1.06474,-1.0061 3.08048,-1.50915 6.0472,-1.50915z"></path><path d="M108.80245,48.83158c3.41263,0 5.53758,0.7325 6.3748,2.19754c0.45502,0.81194 0.72348,1.54447 0.80539,2.19757c0.0819,0.6531 0.12286,1.60183 0.12286,2.84622v37.66289c0,1.95042 0.16835,3.186 0.50507,3.70671c0.33671,0.51189 1.07839,0.76782 2.22504,0.76782c1.14665,0 1.91562,0.03971 2.30694,0.11915c0.39132,0.07944 0.86453,0.30889 1.41966,0.68839c1.11935,0.70603 1.67901,2.62999 1.67901,5.77188c0,3.42429 -0.55966,5.51594 -1.67901,6.27494c-0.87046,0.58037 -2.45972,0.87056 -4.76778,0.87056c-1.55269,0 -3.43066,-0.13133 -5.63394,-0.394c-4.30446,-0.53834 -7.09828,-1.91955 -8.38143,-4.14357c-1.56527,-2.65649 -2.34789,-6.8839 -2.34789,-12.68226v-38.72194c0,-1.24439 0.04095,-2.1799 0.12286,-2.80652c0.0819,-0.6266 0.3185,-1.3459 0.70982,-2.15784c0.78263,-1.46504 2.96217,-2.19754 6.53862,-2.19754z"></path><path d="M136.22759,49.00367c3.53095,0 5.65588,0.73251 6.37481,2.19754c0.45502,0.81194 0.72348,1.53122 0.80537,2.15783c0.08191,0.6178 0.12285,1.55331 0.12285,2.80652c0,1.24441 -0.04094,2.1799 -0.12285,2.80651c-0.0819,0.61778 -0.3367,1.31941 -0.76443,2.10487c-0.41861,0.78549 -1.1603,1.34149 -2.22504,1.66803c-1.05564,0.32655 -2.46619,0.48983 -4.23167,0.48983c-1.75636,0 -3.16692,-0.16328 -4.23166,-0.48983c-1.06474,-0.32653 -1.80642,-0.89579 -2.22505,-1.70773c-0.41861,-0.81194 -0.66888,-1.52681 -0.75078,-2.1446c-0.0819,-0.62662 -0.12286,-1.56211 -0.12286,-2.80652c0,-1.25321 0.04096,-2.18872 0.12286,-2.80649c0.0819,-0.62662 0.3185,-1.31942 0.70983,-2.07842c0.78262,-1.46504 2.96216,-2.19754 6.53861,-2.19754zM136.22759,69.08613c2.68461,0 4.58658,0.46334 5.70593,1.39001c0.95553,0.75898 1.46061,1.92396 1.51521,3.49491c0.0546,0.53836 0.0819,1.32382 0.0819,2.35641v28.46228c0,1.25323 -0.04094,2.19313 -0.12285,2.81974c-0.0819,0.6178 -0.35036,1.33266 -0.80537,2.1446c-0.71893,1.41208 -2.87118,2.11812 -6.45671,2.11812c-3.52185,0 -5.67409,-0.73252 -6.45671,-2.19756c-0.39132,-0.81194 -0.62793,-1.51358 -0.70983,-2.10488c-0.0819,-0.60013 -0.12286,-1.55329 -0.12286,-2.85947v-28.54171c0,-1.25321 0.04096,-2.18872 0.12286,-2.80649c0.0819,-0.62662 0.3185,-1.3459 0.70983,-2.15786c0.78262,-1.41208 2.96216,-2.1181 6.53861,-2.1181z"></path><path d="M172.00185,82.99953c-2.14768,0 -3.86766,0.73253 -5.15991,2.19757c-1.28315,1.46504 -1.92472,3.06686 -1.92472,4.80549c0,1.72979 0.65523,3.31398 1.96568,4.75253c1.31955,1.43855 2.99856,2.15783 5.03705,2.15783c2.03848,0 3.7721,-0.70603 5.20086,-2.1181c1.42875,-1.4121 2.14314,-3.0095 2.14314,-4.79225c0,-1.79159 -0.67343,-3.40666 -2.02029,-4.84521c-1.33775,-1.43855 -3.08502,-2.15786 -5.2418,-2.15786zM156.68593,69.0067c2.96672,0 4.96881,0.36626 6.00624,1.09877c1.03744,0.73252 1.63807,1.80482 1.80188,3.2169c2.12948,-2.82416 5.46932,-4.23623 10.01951,-4.23623c4.55928,0 8.87739,2.08722 12.95436,6.2617c4.08606,4.17446 6.1291,9.02848 6.1291,14.56208c0,5.5336 -2.02939,10.38763 -6.08815,14.56211c-4.04966,4.17448 -8.36778,6.2617 -12.95437,6.2617c-4.57748,0 -7.90366,-1.2488 -9.97854,-3.74642v16.42868c0,1.25323 -0.04095,2.17549 -0.12285,2.76681c-0.0819,0.60012 -0.33217,1.29294 -0.75078,2.0784c-0.41861,0.78548 -1.13299,1.34148 -2.14314,1.66802c-1.00103,0.32656 -2.37065,0.48981 -4.10882,0.48981c-1.72907,0 -3.11232,-0.16326 -4.14976,-0.48981c-1.03744,-0.32654 -1.76548,-0.8693 -2.1841,-1.62829c-0.41861,-0.75901 -0.66888,-1.43856 -0.75078,-2.03871c-0.0819,-0.5913 -0.12285,-1.50915 -0.12285,-2.75356v-47.51214c0,-1.24439 0.04095,-2.16224 0.12285,-2.75356c0.0819,-0.60013 0.31852,-1.27969 0.70983,-2.0387c0.78263,-1.46504 2.65275,-2.19754 5.61037,-2.19754z"></path><path d="M235.11158,66.65027v14.38999h10.56553c1.68356,0 3.33527,-0.59573 4.95515,-1.78717c1.61986,-1.19146 2.4298,-2.97862 2.4298,-5.3615c0,-2.39171 -0.80994,-4.19652 -2.4298,-5.41445c-1.61988,-1.21791 -3.29889,-1.82687 -5.03706,-1.82687zM245.67711,52.24704c4.92329,0 9.70554,1.73862 14.34671,5.21587c2.2933,1.67686 4.16343,3.95383 5.61038,6.83095c1.45605,2.86829 2.18408,6.06755 2.18408,9.59775c0,3.52138 -0.72803,6.70739 -2.18408,9.55803c-1.44696,2.84181 -3.31708,5.10556 -5.61038,6.79124c-4.64118,3.46843 -9.45073,5.20264 -14.42863,5.20264h-10.48361v9.18735c0,1.24441 -0.04095,2.17991 -0.12286,2.80652c-0.08189,0.62662 -0.34581,1.34589 -0.79173,2.15785c-0.78262,1.46501 -2.96671,2.19755 -6.55227,2.19755c-3.91314,0 -6.2019,-1.0017 -6.86623,-3.00509c-0.3367,-0.92668 -0.50505,-2.33875 -0.50505,-4.23624v-45.1425c0,-1.24439 0.04094,-2.1799 0.12285,-2.80652c0.08191,-0.6266 0.34582,-1.34587 0.79172,-2.15783c0.78265,-1.46504 2.96674,-2.19755 6.55227,-2.19755z"></path><path d="M294.10931,83.23783c-2.20229,0 -3.9905,0.75898 -5.36467,2.27697c-1.36506,1.51799 -2.04757,3.17278 -2.04757,4.96435c0,1.79159 0.72346,3.40665 2.17042,4.8452c1.45607,1.43855 3.217,2.15784 5.28278,2.15784c2.07488,0 3.79484,-0.73251 5.1599,-2.19754c1.37417,-1.46504 2.06122,-3.08012 2.06122,-4.84521c0,-1.76511 -0.65976,-3.40665 -1.97931,-4.92464c-1.31045,-1.51799 -3.07138,-2.27697 -5.28278,-2.27697zM308.5789,69.00669c2.18409,0 3.80395,0.16326 4.85959,0.48981c1.06476,0.32654 1.80643,0.89578 2.22504,1.70772c0.42771,0.81196 0.68254,1.53124 0.76445,2.15785c0.08189,0.61777 0.12284,1.55329 0.12284,2.8065v28.46228c0,1.24441 -0.04095,2.1799 -0.12284,2.80652c-0.08191,0.62662 -0.31852,1.34589 -0.70984,2.15785c-0.78262,1.41208 -2.69824,2.11811 -5.74687,2.11811c-3.04863,0 -5.09167,-0.36625 -6.12911,-1.09877c-1.02834,-0.73252 -1.62897,-1.80482 -1.80188,-3.21689c-2.06577,2.87711 -5.51936,4.31566 -10.36077,4.31566c-4.83229,0 -9.31876,-2.14017 -13.45943,-6.42055c-4.13157,-4.28921 -6.19734,-9.26678 -6.19734,-14.93277c-0.00002,-5.66597 2.07942,-10.62592 6.2383,-14.87983c4.16796,-4.26271 8.74089,-6.39406 13.71879,-6.39406c1.90197,0 3.6356,0.32654 5.20087,0.97963c1.56527,0.65309 2.65276,1.26645 3.26248,1.84011c0.61882,0.56482 1.1239,1.11643 1.51522,1.65477c0.3367,-3.03596 2.54354,-4.55395 6.62051,-4.55395z"></path><path d="M330.63576,69.00669c3.41264,0 5.51029,0.62218 6.29291,1.86659c0.56421,0.92668 0.84633,2.03869 0.84633,3.33604c0.21841,-0.3795 0.71894,-0.91785 1.50156,-1.61506c0.78262,-0.70605 1.53797,-1.27971 2.266,-1.72098c1.90197,-1.24441 3.9996,-1.86659 6.29289,-1.86659c5.58765,0 10.24247,2.07399 13.9645,6.22199c3.72208,4.14798 5.58308,9.205 5.58308,15.17104v14.31057c0,1.25323 -0.04546,2.19315 -0.13648,2.81977c-0.08191,0.61777 -0.31851,1.30616 -0.70986,2.06517c-0.78262,1.46501 -2.96216,2.19755 -6.53861,2.19755c-3.96772,0 -6.26103,-1.0017 -6.87987,-3.00509c-0.3367,-0.92668 -0.50504,-2.31227 -0.50504,-4.15682v-14.31055c0,-2.22404 -0.6598,-3.95825 -1.97935,-5.20266c-1.31045,-1.25321 -3.07136,-1.87982 -5.28275,-1.87982c-2.20229,0 -3.99052,0.65309 -5.36467,1.95925c-1.36506,1.29734 -2.04759,3.00509 -2.04759,5.12322v14.38998c0,1.25323 -0.04096,2.19315 -0.12285,2.81977c-0.08191,0.61777 -0.35035,1.30616 -0.80537,2.06517c-0.71893,1.46501 -2.87118,2.19755 -6.45671,2.19755c-3.52185,0 -5.67409,-0.73253 -6.45671,-2.19755c-0.39134,-0.81196 -0.62795,-1.53123 -0.70983,-2.15785c-0.08191,-0.62662 -0.12286,-1.56211 -0.12286,-2.80652v-28.79322c0,-1.19146 0.04095,-2.09606 0.12286,-2.71386c0.08189,-0.62662 0.3458,-1.31941 0.79172,-2.0784c0.78265,-1.35914 2.93488,-2.03869 6.45671,-2.03869z"></path><path d="M396.5169,80.96083c-1.81098,0 -3.61286,0.71928 -5.40559,2.15785c-1.79278,1.43855 -2.68917,2.96977 -2.68917,4.59368h10.57916c2.12038,0 3.18059,-0.8649 3.18059,-2.59471c0,-1.25321 -0.49143,-2.25932 -1.47428,-3.01832c-0.97375,-0.75898 -2.37063,-1.1385 -4.19071,-1.1385zM396.73533,68.11972c7.77171,0 13.47307,2.65647 17.10413,7.96945c1.90195,2.81534 2.85295,5.89102 2.85295,9.22706c0,3.33606 -0.85543,5.80279 -2.5663,7.40019c-1.70177,1.59743 -3.58552,2.39614 -5.65133,2.39614h-19.87516c0,1.51799 0.9191,2.79327 2.75738,3.82585c1.84738,1.03258 3.69477,1.54888 5.54212,1.54888c3.23975,0 5.7833,-0.32654 7.63068,-0.97963l0.9282,-0.31772c1.33776,-0.60013 2.45257,-0.90022 3.34441,-0.90022c1.79273,0 3.33072,1.21793 4.61387,3.65377c0.72802,1.46504 1.09203,2.71384 1.09203,3.74642c0,4.82757 -5.95618,7.24134 -17.86854,7.24134c-4.13159,0 -7.80812,-0.68839 -11.02967,-2.06517c-3.2124,-1.38562 -5.71044,-3.22133 -7.49412,-5.50712c-3.52185,-4.38629 -5.28278,-9.29327 -5.28278,-14.72096c0,-6.83094 2.2751,-12.28953 6.82527,-16.37574c4.5593,-4.09504 10.25155,-6.14256 17.07686,-6.14256z"></path><path d="M429.51725,48.83158c3.41264,0 5.53757,0.7325 6.3748,2.19754c0.45502,0.81194 0.72351,1.54447 0.80538,2.19757c0.08191,0.6531 0.12286,1.60183 0.12286,2.84622v37.66289c0,1.95042 0.16837,3.186 0.50507,3.70671c0.3367,0.51189 1.07837,0.76782 2.22505,0.76782c1.14664,0 1.9156,0.03971 2.30692,0.11915c0.39132,0.07944 0.86453,0.30889 1.41967,0.68839c1.11937,0.70603 1.67901,2.62999 1.67901,5.77188c0,3.42429 -0.55964,5.51594 -1.67901,6.27494c-0.87045,0.58037 -2.4597,0.87056 -4.76775,0.87056c-1.55272,0 -3.43067,-0.13133 -5.63397,-0.394c-4.30447,-0.53834 -7.09826,-1.91955 -8.38141,-4.14357c-1.56529,-2.65649 -2.34792,-6.8839 -2.34792,-12.68226v-38.72194c0,-1.24439 0.04096,-2.1799 0.12287,-2.80652c0.08191,-0.6266 0.31849,-1.3459 0.70981,-2.15784c0.78262,-1.46504 2.96216,-2.19754 6.53862,-2.19754z"></path></g><text style="mix-blend-mode: normal" text-anchor="start" font-weight="normal" font-family="Sans Serif" stroke-dashoffset="0" stroke-dasharray="" stroke-miterlimit="10" stroke-linejoin="miter" stroke-linecap="butt" stroke-width="2" stroke="#bd7b7b" fill-rule="nonzero" fill="#be7c7c" xml:space="preserve" font-size="40" transform="translate(199.52164,134.04311) scale(0.4949,0.4949)"><tspan dy="0" x="0">by mjm3</tspan></text><g stroke-linecap="square" stroke-width="1" stroke="none" fill-rule="evenodd" fill="url(#color-2)"><path d="M83.68527,47.24704c1.28315,0 2.24323,0.04412 2.88027,0.13237c0.64613,0.07943 1.37416,0.33538 2.18409,0.76782c0.80993,0.43245 1.38325,1.16498 1.71997,2.19756c0.33671,1.03259 0.50507,2.41819 0.50507,4.1568c0,1.72981 -0.16835,3.11101 -0.50507,4.14359c-0.33671,1.02377 -0.92369,1.74304 -1.76092,2.15783c-0.83724,0.40597 -1.57892,0.64868 -2.22504,0.7281c-0.63701,0.07943 -1.62896,0.11916 -2.97582,0.11916h-25.66303v8.20773h16.53082c1.33775,0 2.32514,0.04411 2.96217,0.13237c0.64612,0.07943 1.39235,0.33538 2.23869,0.76782c1.44696,0.81194 2.17044,2.95214 2.17044,6.42057c0,3.8038 -1.0602,6.0543 -3.18058,6.75151c-0.89183,0.2736 -2.32059,0.4104 -4.28627,0.4104h-16.43526v15.36961c0,1.30619 -0.04095,2.25934 -0.12285,2.85947c-0.08191,0.5913 -0.34581,1.29294 -0.79174,2.10488c-0.78262,1.46503 -2.96671,2.19756 -6.55226,2.19756c-3.91315,0 -6.20189,-1.02818 -6.86623,-3.08453c-0.33672,-0.87372 -0.50507,-2.25932 -0.50507,-4.15682v-45.22192c0,-2.76238 0.52783,-4.64664 1.58346,-5.65274c1.06474,-1.00611 3.08048,-1.50915 6.04719,-1.50915z"></path><path d="M103.80245,43.83158c3.41263,0 5.53758,0.7325 6.3748,2.19754c0.45502,0.81194 0.72348,1.54447 0.80539,2.19756c0.0819,0.65309 0.12286,1.60183 0.12286,2.84622v37.66288c0,1.95042 0.16835,3.18601 0.50507,3.70671c0.33671,0.51188 1.07839,0.76782 2.22504,0.76782c1.14665,0 1.91562,0.03971 2.30695,0.11914c0.39131,0.07943 0.86453,0.3089 1.41966,0.68839c1.11935,0.70603 1.67901,2.62999 1.67901,5.77188c0,3.42429 -0.55966,5.51594 -1.67901,6.27494c-0.87046,0.58036 -2.45972,0.87056 -4.76778,0.87056c-1.55269,0 -3.43066,-0.13133 -5.63394,-0.39399c-4.30446,-0.53834 -7.09828,-1.91955 -8.38143,-4.14357c-1.56527,-2.65649 -2.34789,-6.8839 -2.34789,-12.68226v-38.72194c0,-1.24439 0.04096,-2.1799 0.12286,-2.80652c0.0819,-0.62659 0.3185,-1.3459 0.70982,-2.15784c0.78263,-1.46503 2.96218,-2.19754 6.53862,-2.19754z"></path><path d="M131.22759,44.00367c3.53095,0 5.65588,0.7325 6.37481,2.19754c0.45502,0.81194 0.72347,1.53122 0.80538,2.15784c0.08191,0.6178 0.12286,1.55331 0.12286,2.80652c0,1.24441 -0.04095,2.1799 -0.12286,2.80652c-0.0819,0.61778 -0.3367,1.31941 -0.76443,2.10488c-0.41861,0.78548 -1.16029,1.34148 -2.22504,1.66802c-1.05564,0.32656 -2.4662,0.48983 -4.23167,0.48983c-1.75636,0 -3.16692,-0.16328 -4.23166,-0.48983c-1.06474,-0.32654 -1.80642,-0.89579 -2.22505,-1.70773c-0.41862,-0.81194 -0.66888,-1.52681 -0.75078,-2.1446c-0.0819,-0.62661 -0.12286,-1.56211 -0.12286,-2.80652c0,-1.25321 0.04096,-2.18872 0.12286,-2.8065c0.0819,-0.62661 0.31851,-1.31942 0.70983,-2.07842c0.78262,-1.46503 2.96217,-2.19754 6.53861,-2.19754zM131.22759,64.08613c2.68461,0 4.58658,0.46334 5.70593,1.39001c0.95554,0.75899 1.46061,1.92396 1.51521,3.49491c0.0546,0.53836 0.0819,1.32382 0.0819,2.35641v28.46228c0,1.25323 -0.04095,2.19313 -0.12286,2.81975c-0.0819,0.6178 -0.35036,1.33266 -0.80538,2.1446c-0.71894,1.41208 -2.87117,2.11813 -6.45671,2.11813c-3.52185,0 -5.67409,-0.73253 -6.45671,-2.19756c-0.39132,-0.81194 -0.62793,-1.51358 -0.70983,-2.10488c-0.0819,-0.60014 -0.12286,-1.55329 -0.12286,-2.85947v-28.54171c0,-1.25321 0.04096,-2.18872 0.12286,-2.8065c0.0819,-0.62661 0.31851,-1.3459 0.70983,-2.15786c0.78262,-1.41208 2.96217,-2.11811 6.53861,-2.11811z"></path><path d="M167.00184,77.99954c-2.14768,0 -3.86766,0.73253 -5.15991,2.19756c-1.28315,1.46503 -1.92473,3.06687 -1.92473,4.8055c0,1.7298 0.65523,3.31397 1.96568,4.75253c1.31955,1.43856 2.99856,2.15783 5.03705,2.15783c2.03848,0 3.7721,-0.70603 5.20086,-2.11811c1.42875,-1.4121 2.14314,-3.0095 2.14314,-4.79225c0,-1.79159 -0.67343,-3.40665 -2.02029,-4.84521c-1.33775,-1.43856 -3.08502,-2.15785 -5.24181,-2.15785zM151.68593,64.0067c2.96672,0 4.9688,0.36626 6.00624,1.09877c1.03745,0.73253 1.63807,1.80482 1.80188,3.2169c2.12948,-2.82416 5.46932,-4.23623 10.0195,-4.23623c4.55928,0 8.8774,2.08722 12.95436,6.2617c4.08606,4.17446 6.1291,9.02849 6.1291,14.56208c0,5.5336 -2.02939,10.38763 -6.08815,14.56211c-4.04966,4.17448 -8.36778,6.2617 -12.95437,6.2617c-4.57748,0 -7.90366,-1.2488 -9.97854,-3.74642v16.42868c0,1.25323 -0.04096,2.17549 -0.12286,2.76681c-0.0819,0.60012 -0.33217,1.29294 -0.75078,2.0784c-0.41862,0.78548 -1.13299,1.34148 -2.14313,1.66802c-1.00103,0.32656 -2.37065,0.48981 -4.10882,0.48981c-1.72907,0 -3.11232,-0.16326 -4.14976,-0.48981c-1.03745,-0.32654 -1.76548,-0.86931 -2.18409,-1.62829c-0.41862,-0.75901 -0.66888,-1.43856 -0.75078,-2.03871c-0.0819,-0.5913 -0.12285,-1.50915 -0.12285,-2.75356v-47.51215c0,-1.24439 0.04095,-2.16224 0.12285,-2.75356c0.0819,-0.60014 0.31851,-1.27969 0.70983,-2.03869c0.78264,-1.46503 2.65276,-2.19754 5.61037,-2.19754z"></path><path d="M230.11158,61.65027v14.38999h10.56552c1.68356,0 3.33527,-0.59573 4.95515,-1.78716c1.61986,-1.19145 2.4298,-2.97862 2.4298,-5.3615c0,-2.39171 -0.80995,-4.19653 -2.4298,-5.41446c-1.61988,-1.21791 -3.29889,-1.82687 -5.03706,-1.82687zM240.67711,47.24704c4.92329,0 9.70554,1.73862 14.34672,5.21586c2.29331,1.67686 4.16342,3.95383 5.61038,6.83094c1.45605,2.86829 2.18409,6.06755 2.18409,9.59776c0,3.52138 -0.72803,6.7074 -2.18409,9.55803c-1.44695,2.84182 -3.31707,5.10556 -5.61038,6.79124c-4.64118,3.46843 -9.45073,5.20263 -14.42863,5.20263h-10.48361v9.18735c0,1.24441 -0.04096,2.1799 -0.12287,2.80652c-0.08189,0.62661 -0.34581,1.34589 -0.79172,2.15785c-0.78262,1.46502 -2.96671,2.19754 -6.55227,2.19754c-3.91314,0 -6.20189,-1.0017 -6.86622,-3.00509c-0.3367,-0.92667 -0.50506,-2.33875 -0.50506,-4.23624v-45.14251c0,-1.24439 0.04093,-2.1799 0.12284,-2.80652c0.08191,-0.62659 0.34583,-1.34587 0.79172,-2.15783c0.78265,-1.46503 2.96673,-2.19754 6.55227,-2.19754z"></path><path d="M289.10932,78.23783c-2.20229,0 -3.9905,0.75899 -5.36466,2.27698c-1.36506,1.51799 -2.04757,3.17278 -2.04757,4.96435c0,1.79159 0.72346,3.40665 2.17042,4.84521c1.45607,1.43856 3.217,2.15784 5.28277,2.15784c2.07488,0 3.79484,-0.73251 5.15991,-2.19754c1.37416,-1.46503 2.06122,-3.08012 2.06122,-4.84521c0,-1.76511 -0.65975,-3.40665 -1.97931,-4.92464c-1.31045,-1.51799 -3.07138,-2.27698 -5.28277,-2.27698zM303.5789,64.00669c2.18409,0 3.80395,0.16326 4.85959,0.48981c1.06476,0.32654 1.80643,0.89578 2.22505,1.70772c0.42772,0.81196 0.68253,1.53124 0.76444,2.15786c0.08189,0.61778 0.12284,1.55329 0.12284,2.8065v28.46228c0,1.24441 -0.04095,2.1799 -0.12284,2.80652c-0.08191,0.62661 -0.31852,1.3459 -0.70984,2.15786c-0.78262,1.41208 -2.69825,2.11811 -5.74687,2.11811c-3.04863,0 -5.09167,-0.36624 -6.12911,-1.09877c-1.02834,-0.73253 -1.62897,-1.80482 -1.80188,-3.2169c-2.06577,2.87711 -5.51936,4.31567 -10.36077,4.31567c-4.83228,0 -9.31876,-2.14018 -13.45943,-6.42055c-4.13157,-4.28921 -6.19735,-9.26679 -6.19735,-14.93278c-0.00002,-5.66597 2.07943,-10.62591 6.2383,-14.87982c4.16795,-4.26271 8.74089,-6.39407 13.71879,-6.39407c1.90197,0 3.63559,0.32654 5.20086,0.97963c1.56527,0.65309 2.65276,1.26646 3.26248,1.84012c0.61882,0.56482 1.1239,1.11643 1.51521,1.65477c0.3367,-3.03596 2.54355,-4.55395 6.62051,-4.55395z"></path><path d="M325.63576,64.00669c3.41263,0 5.51028,0.62219 6.29291,1.86659c0.56422,0.92667 0.84633,2.03869 0.84633,3.33604c0.21841,-0.37949 0.71894,-0.91785 1.50156,-1.61506c0.78262,-0.70605 1.53797,-1.2797 2.266,-1.72097c1.90197,-1.24441 3.9996,-1.86659 6.29288,-1.86659c5.58764,0 10.24247,2.07399 13.96451,6.22199c3.72207,4.14798 5.58307,9.20499 5.58307,15.17104v14.31057c0,1.25323 -0.04547,2.19315 -0.13648,2.81976c-0.08191,0.61778 -0.3185,1.30617 -0.70985,2.06517c-0.78262,1.46502 -2.96217,2.19754 -6.53862,2.19754c-3.96773,0 -6.26103,-1.0017 -6.87987,-3.00509c-0.3367,-0.92667 -0.50504,-2.31227 -0.50504,-4.15682v-14.31055c0,-2.22404 -0.6598,-3.95825 -1.97935,-5.20265c-1.31045,-1.25321 -3.07136,-1.87982 -5.28275,-1.87982c-2.20229,0 -3.99052,0.65309 -5.36466,1.95926c-1.36506,1.29735 -2.04759,3.0051 -2.04759,5.12322v14.38999c0,1.25323 -0.04096,2.19315 -0.12285,2.81976c-0.08191,0.61778 -0.35036,1.30617 -0.80538,2.06517c-0.71894,1.46502 -2.87117,2.19754 -6.45671,2.19754c-3.52185,0 -5.67409,-0.73253 -6.45671,-2.19754c-0.39133,-0.81196 -0.62794,-1.53124 -0.70983,-2.15785c-0.08191,-0.62661 -0.12287,-1.56211 -0.12287,-2.80652v-28.79322c0,-1.19145 0.04096,-2.09606 0.12287,-2.71385c0.08189,-0.62661 0.34581,-1.31941 0.79172,-2.0784c0.78265,-1.35914 2.93488,-2.03869 6.45671,-2.03869z"></path><path d="M391.5169,75.96083c-1.81098,0 -3.61286,0.71928 -5.4056,2.15785c-1.79278,1.43856 -2.68917,2.96978 -2.68917,4.59368h10.57916c2.12038,0 3.18059,-0.8649 3.18059,-2.59471c0,-1.25321 -0.49143,-2.25932 -1.47428,-3.01832c-0.97375,-0.75899 -2.37062,-1.1385 -4.19071,-1.1385zM391.73533,63.11972c7.77171,0 13.47306,2.65647 17.10412,7.96944c1.90195,2.81534 2.85295,5.89102 2.85295,9.22706c0,3.33606 -0.85543,5.80279 -2.5663,7.40019c-1.70177,1.59742 -3.58552,2.39614 -5.65133,2.39614h-19.87516c0,1.51799 0.9191,2.79327 2.75739,3.82585c1.84738,1.03258 3.69477,1.54888 5.54212,1.54888c3.23975,0 5.7833,-0.32653 7.63068,-0.97963l0.9282,-0.31772c1.33776,-0.60014 2.45257,-0.90021 3.34441,-0.90021c1.79274,0 3.33072,1.21793 4.61387,3.65378c0.72802,1.46503 1.09202,2.71383 1.09202,3.74642c0,4.82757 -5.95618,7.24135 -17.86854,7.24135c-4.13159,0 -7.80812,-0.68839 -11.02967,-2.06517c-3.21241,-1.38562 -5.71045,-3.22133 -7.49413,-5.50712c-3.52185,-4.38628 -5.28277,-9.29327 -5.28277,-14.72095c0,-6.83095 2.2751,-12.28954 6.82527,-16.37574c4.55931,-4.09504 10.25155,-6.14256 17.07686,-6.14256z"></path><path d="M424.51725,43.83158c3.41263,0 5.53757,0.7325 6.3748,2.19754c0.45502,0.81194 0.7235,1.54447 0.80538,2.19756c0.08191,0.65309 0.12287,1.60183 0.12287,2.84622v37.66288c0,1.95042 0.16837,3.18601 0.50508,3.70671c0.3367,0.51188 1.07837,0.76782 2.22505,0.76782c1.14663,0 1.9156,0.03971 2.30692,0.11914c0.39131,0.07943 0.86453,0.3089 1.41967,0.68839c1.11937,0.70603 1.67901,2.62999 1.67901,5.77188c0,3.42429 -0.55964,5.51594 -1.67901,6.27494c-0.87045,0.58036 -2.4597,0.87056 -4.76775,0.87056c-1.55272,0 -3.43067,-0.13133 -5.63397,-0.39399c-4.30447,-0.53834 -7.09826,-1.91955 -8.38141,-4.14357c-1.56529,-2.65649 -2.34791,-6.8839 -2.34791,-12.68226v-38.72194c0,-1.24439 0.04096,-2.1799 0.12287,-2.80652c0.08191,-0.62659 0.3185,-1.3459 0.70981,-2.15784c0.78262,-1.46503 2.96217,-2.19754 6.53862,-2.19754z"></path></g></g></g></svg>