<svg version="1.1" xmlns="http://www.w3.org/2000/svg" xmlns:xlink="http://www.w3.org/1999/xlink" width="495.00198" height="369.13699" viewBox="0,0,495.00198,369.13699"><g transform="translate(6.53442,3.73677)"><g data-paper-data="{&quot;isPaintingLayer&quot;:true}" fill-rule="nonzero" stroke-linejoin="miter" stroke-miterlimit="10" stroke-dasharray="" stroke-dashoffset="0" style="mix-blend-mode: normal"><g><path d="M1,0h479v360h-479z" fill="#dbffe2" stroke="none" stroke-width="1" stroke-linecap="butt"/><g fill="#ffffff" stroke="#ffffff" stroke-width="15" stroke-linecap="round"><g><path d="M249.61138,39.2l0.66866,37.1l-63.90474,-33.9l-62.56742,34.6l-65.71967,-34.6l-57.12262,30v-37.8l55.7853,-29.7l65.81519,34.7l62.56742,-34.7l64.47788,34.3"/><path d="M480.96755,21.5v36.8l-30.08967,-16l-62.56742,34.6l-65.71967,-34.6l-65.8152,34.6l-0.66866,-37.1l1.33732,-1l63.80921,-34l65.8152,34.7l62.56743,-34.7l31.33147,16.7"/></g><g><path d="M253.71885,132.1l0.57314,37.1l-63.80921,-34l-62.56742,34.7l-65.81519,-34.7l-61.13457,32.2v-37.8l59.89278,-31.8l65.71967,34.6l62.56742,-34.6l64.5734,34.3"/><path d="M480.96755,112.2v36.7l-25.98219,-13.8l-62.56742,34.6l-65.8152,-34.6l-65.8152,34.6l-0.57314,-37.1l1.24179,-1l63.90474,-34l65.71967,34.7l62.56742,-34.7l27.31951,14.6"/></g><g><path d="M4.02231,315l63.90474,-34l65.71967,34.6l62.56742,-34.6l64.5734,34.3l0.66866,37.1l-63.80921,-33.9l-62.56742,34.6l-65.81519,-34.6l-65.81519,34.6l-0.66866,-37.1z"/><path d="M480.96755,291.7v36.8l-18.91351,-10.1l-62.56742,34.6l-65.81519,-34.6l-65.8152,34.6l-0.57314,-37.1l1.2418,-1l63.90474,-34l65.71967,34.7l62.56742,-34.7l20.25083,10.8"/></g><g><path d="M256.68006,222.5l0.66866,37.1l-63.90474,-33.9l-62.56742,34.6l-65.71968,-34.6l-64.1913,33.8v-37.9l62.85398,-33.4l65.8152,34.7l62.56742,-34.7l64.47788,34.3"/><path d="M480.96755,201.1v36.7l-23.02099,-12.2l-62.56742,34.6l-65.71967,-34.6l-65.8152,34.6l-0.66866,-37.1l1.33731,-1l63.80922,-34l65.8152,34.7l62.56742,-34.7l24.26278,13"/></g></g></g><g><text transform="translate(24.0343,280.33677) scale(0.70619,0.70619)" font-size="40" xml:space="preserve" fill="#00c1ff" fill-rule="nonzero" stroke="none" stroke-width="1" stroke-linecap="butt" stroke-linejoin="miter" stroke-miterlimit="10" stroke-dasharray="" stroke-dashoffset="0" font-family="Sans Serif" font-weight="normal" text-anchor="start" style="mix-blend-mode: normal"><tspan x="0" dy="0">Click here </tspan><tspan x="0" dy="46.150000000000006px">to make a Tech list!</tspan></text><g><path d="M250.28927,257.7272l26.25687,13.70707l-26.25687,13.70707z" fill="#00c1ff" stroke="none" stroke-width="0" stroke-linecap="butt"/><path d="M265.94664,271.43427h-93.38645" fill="none" stroke="#00c1ff" stroke-width="6.5" stroke-linecap="round"/></g></g></g></g></svg>